# xmcd CD database file
#
# Track frame offsets:
#	150
#	38307
#	115258
#	148228
#	200328
#	261020
#	294702
#
# Disc length: 4293 seconds
#
# Revision: 0
# Processed by: cddbd v1.5.2PL0 Copyright (c) Steve Scherf et al.
# Submitted via: CDex 1.70beta2
#
DISCID=6410c307
DTITLE=Mario Canonge - Rhizome Tour
DYEAR=2007
DGENRE=Jazz
TTITLE0=Manman-Dlo
TTITLE1=Madikera
TTITLE2=Where Are You? ～Stairway To The Stars
TTITLE3=Plein Sud
TTITLE4=Lueur Eteinte
TTITLE5=Mo Better Blues
TTITLE6=Eia Haiti
EXTD=YEAR: 2007
EXTT0=
EXTT1=
EXTT2=
EXTT3=
EXTT4=
EXTT5=
EXTT6=
PLAYORDER=
